HIERARCHY
ROOT hip
{
  OFFSET 0 0 0
  CHANNELS 6 Xposition Yposition Zposition Zrotation Yrotation Xrotation
  JOINT abdomen
  {
    OFFSET 0 20.6881 -0.73152
    CHANNELS 3 Zrotation Xrotation Yrotation
    JOINT chest
    {
      OFFSET 0 11.7043 -0.48768
      CHANNELS 3 Zrotation Xrotation Yrotation
      JOINT neck
      {
        OFFSET 0 22.1894 -2.19456
        CHANNELS 3 Zrotation Xrotation Yrotation
        JOINT head
        {
          OFFSET -0.24384 7.07133 1.2192
          CHANNELS 3 Zrotation Xrotation Yrotation
          JOINT leftEye
          {
            OFFSET 4.14528 8.04674 8.04672
            CHANNELS 3 Zrotation Xrotation Yrotation
            End Site
            {
              OFFSET 1 0 0
            }
          }
          JOINT rightEye
          {
            OFFSET -3.6576 8.04674 8.04672
            CHANNELS 3 Zrotation Xrotation Yrotation
            End Site
            {
              OFFSET 1 0 0
            }
          }
        }
      }
      JOINT rCollar
      {
        OFFSET -2.68224 19.2634 -4.8768
        CHANNELS 3 Zrotation Xrotation Yrotation
        JOINT rShldr
        {
          OFFSET -8.77824 -1.95073 1.46304
          CHANNELS 3 Zrotation Xrotation Yrotation
          JOINT rForeArm
          {
            OFFSET -28.1742 -1.7115 0.48768
            CHANNELS 3 Zrotation Xrotation Yrotation
            JOINT rHand
            {
              OFFSET -22.5879 0.773209 7.07136
              CHANNELS 3 Zrotation Xrotation Yrotation
              JOINT rThumb1
              {
                OFFSET -1.2192 -0.487915 3.41376
                CHANNELS 3 Zrotation Xrotation Yrotation
                JOINT rThumb2
                {
                  OFFSET -3.37035 -0.52449 3.41376
                  CHANNELS 3 Zrotation Xrotation Yrotation
                  End Site
                  {
                    OFFSET -1.78271 -1.18214 1.43049
                  }
                }
              }
              JOINT rIndex1
              {
                OFFSET -7.75947 0.938293 5.60832
                CHANNELS 3 Zrotation Xrotation Yrotation
                JOINT rIndex2
                {
                  OFFSET -2.54057 -0.884171 1.56538
                  CHANNELS 3 Zrotation Xrotation Yrotation
                  End Site
                  {
                    OFFSET -1.62519 -0.234802 1.16502
                  }
                }
              }
              JOINT rMid1
              {
                OFFSET -8.24714 1.18213 3.41376
                CHANNELS 3 Zrotation Xrotation Yrotation
                JOINT rMid2
                {
                  OFFSET -3.10165 -0.590103 1.0647
                  CHANNELS 3 Zrotation Xrotation Yrotation
                  End Site
                  {
                    OFFSET -2.48547 -0.328903 0.83742
                  }
                }
              }
              JOINT rRing1
              {
                OFFSET -8.82822 0.546677 1.51678
                CHANNELS 3 Zrotation Xrotation Yrotation
                JOINT rRing2
                {
                  OFFSET -2.60934 -0.819778 -0.0198488
                  CHANNELS 3 Zrotation Xrotation Yrotation
                  End Site
                  {
                    OFFSET -2.33842 -0.294052 0.168128
                  }
                }
              }
              JOINT rPinky1
              {
                OFFSET -8.27202 -0.0477905 -0.4584
                CHANNELS 3 Zrotation Xrotation Yrotation
                JOINT rPinky2
                {
                  OFFSET -1.82734 -0.647385 -0.700984
                  CHANNELS 3 Zrotation Xrotation Yrotation
                  End Site
                  {
                    OFFSET -1.69225 -0.51767 -0.607171
                  }
                }
              }
            }
          }
        }
      }
      JOINT lCollar
      {
        OFFSET 2.68224 19.2634 -4.8768
        CHANNELS 3 Zrotation Xrotation Yrotation
        JOINT lShldr
        {
          OFFSET 8.77824 -1.95073 1.46304
          CHANNELS 3 Zrotation Xrotation Yrotation
          JOINT lForeArm
          {
            OFFSET 28.1742 -1.7115 0.48768
            CHANNELS 3 Zrotation Xrotation Yrotation
            JOINT lHand
            {
              OFFSET 22.5879 0.773209 7.07136
              CHANNELS 3 Zrotation Xrotation Yrotation
              JOINT lThumb1
              {
                OFFSET 1.2192 -0.487915 3.41376
                CHANNELS 3 Zrotation Xrotation Yrotation
                JOINT lThumb2
                {
                  OFFSET 3.37035 -0.52449 3.41376
                  CHANNELS 3 Zrotation Xrotation Yrotation
                  End Site
                  {
                    OFFSET 1.78271 -1.18214 1.43049
                  }
                }
              }
              JOINT lIndex1
              {
                OFFSET 7.75947 0.938293 5.60832
                CHANNELS 3 Zrotation Xrotation Yrotation
                JOINT lIndex2
                {
                  OFFSET 2.54057 -0.884171 1.56538
                  CHANNELS 3 Zrotation Xrotation Yrotation
                  End Site
                  {
                    OFFSET 1.62519 -0.234802 1.16502
                  }
                }
              }
              JOINT lMid1
              {
                OFFSET 8.24714 1.18213 3.41376
                CHANNELS 3 Zrotation Xrotation Yrotation
                JOINT lMid2
                {
                  OFFSET 3.10165 -0.590103 1.0647
                  CHANNELS 3 Zrotation Xrotation Yrotation
                  End Site
                  {
                    OFFSET 2.48547 -0.328903 0.83742
                  }
                }
              }
              JOINT lRing1
              {
                OFFSET 8.82822 0.546677 1.51678
                CHANNELS 3 Zrotation Xrotation Yrotation
                JOINT lRing2
                {
                  OFFSET 2.60934 -0.819778 -0.0198488
                  CHANNELS 3 Zrotation Xrotation Yrotation
                  End Site
                  {
                    OFFSET 2.33842 -0.294052 0.168128
                  }
                }
              }
              JOINT lPinky1
              {
                OFFSET 8.27202 -0.0477905 -0.4584
                CHANNELS 3 Zrotation Xrotation Yrotation
                JOINT lPinky2
                {
                  OFFSET 1.82734 -0.647385 -0.700984
                  CHANNELS 3 Zrotation Xrotation Yrotation
                  End Site
                  {
                    OFFSET 1.69225 -0.51767 -0.607171
                  }
                }
              }
            }
          }
        }
      }
    }
  }
  JOINT rButtock
  {
    OFFSET -8.77824 4.35084 1.2192
    CHANNELS 3 Zrotation Xrotation Yrotation
    JOINT rThigh
    {
      OFFSET 0 -1.70687 -2.19456
      CHANNELS 3 Zrotation Xrotation Yrotation
      JOINT rShin
      {
        OFFSET 0 -36.8199 0.73152
        CHANNELS 3 Zrotation Xrotation Yrotation
        JOINT rFoot
        {
          OFFSET 0.73152 -45.1104 -5.12064
          CHANNELS 3 Zrotation Xrotation Yrotation
          End Site
          {
            OFFSET -1.1221 -3.69964 12.103
          }
        }
      }
    }
  }
  JOINT lButtock
  {
    OFFSET 8.77824 4.35084 1.2192
    CHANNELS 3 Zrotation Xrotation Yrotation
    JOINT lThigh
    {
      OFFSET 0 -1.70687 -2.19456
      CHANNELS 3 Zrotation Xrotation Yrotation
      JOINT lShin
      {
        OFFSET 0 -36.8199 0.73152
        CHANNELS 3 Zrotation Xrotation Yrotation
        JOINT lFoot
        {
          OFFSET -0.73152 -45.1104 -5.12064
          CHANNELS 3 Zrotation Xrotation Yrotation
          End Site
          {
            OFFSET 1.1221 -3.69964 12.103
          }
        }
      }
    }
  }
}
MOTION
Frames:	7
Frame Time:	0.00833333
16.7572 84.3421 56.8451 0.0 0.0 0.0 -1.09228 -0.00410963 -0.0300719 -0.301197 -0.00346497 -0.0521776 -8.48932e-15 -1.59028e-15 1.36664e-16 -2.5578e-14 3.18055e-15 4.09993e-16 -0.0 0.0 0.0 -0.0 0.0 0.0 -4.37468e-15 8.92978e-18 1.49089e-16 -8.67251e-14 2.48481e-17 1.98785e-15 -1.54654e-12 4.70921e-13 6.67917e-14 -1.77452e-11 -4.33375e-13 2.00375e-13 -4.18554e-11 8.23632e-14 5.88403e-13 -7.22785e-11 1.39944e-13 9.97899e-13 -4.18481e-11 8.42847e-14 5.82042e-13 7.73091 5.47488 0.417314 -4.18546e-11 8.23962e-14 5.85222e-13 2.90554 0.965183 0.102902 -4.18445e-11 8.28932e-14 5.81246e-13 10.2786 0.731801 0.0259123 -4.18579e-11 8.46823e-14 5.82042e-13 2.22167 -0.733487 -0.20892 -4.27273e-15 8.15328e-18 -4.96962e-17 -9.30313e-14 -6.83322e-17 0.0 -1.54992e-12 -4.58795e-13 9.54166e-15 -1.77492e-11 4.83966e-13 2.63986e-13 -4.18717e-11 5.85003e-14 5.78861e-13 -7.23111e-11 1.11319e-13 1.01698e-12 -4.18772e-11 6.0033e-14 5.82042e-13 -7.73091 5.47488 -0.417314 -4.1873e-11 5.87409e-14 5.7568e-13 -2.90554 0.965183 -0.102902 -4.18814e-11 5.85421e-14 5.81246e-13 -10.2786 0.731801 -0.0259123 -4.18746e-11 5.725e-14 5.85222e-13 -2.22167 -0.733487 0.20892 -2.03217e-16 0.0 -3.88251e-19 -0.322051 -1.92007 -0.0117211 -0.00932003 -2.07855 -0.0770059 -0.505984 3.99667 0.139386 2.03217e-16 0.0 3.88251e-19 -1.3396 -5.66991 0.118118 -0.000501346 4.71389 -0.0320442 0.520941 0.954209 -0.0788775
18.0553 82.125 46.2075 -174.0 4.3173 -171.317 -0.837546 0.778651 1.29808 -0.211779 -1.3144 0.330362 0.22229 -1.45819 0.491381 2.10067 1.74763 0.260442 -0.0 0.0 0.0 -0.0 0.0 0.0 -4.78042e-15 -1.23201e-13 -6.24347e-15 22.5263 8.21953 -5.06079 -10.419 -7.27982 12.6242 0.126154 -7.90031 -1.07271 -3.13891e-10 2.31838e-10 -4.6031e-10 -5.2947e-10 3.86543e-10 -7.98894e-10 -3.1388e-10 2.31837e-10 -4.60319e-10 7.73091 5.47488 0.417314 -3.1389e-10 2.31837e-10 -4.60315e-10 2.90554 0.965183 0.102902 -3.13882e-10 2.31838e-10 -4.60317e-10 10.2786 0.731801 0.0259123 -3.13893e-10 2.3184e-10 -4.60315e-10 2.22167 -0.733487 -0.20892 -4.70718e-15 -1.23205e-13 -6.44109e-15 -18.7689 16.0717 -0.00190462 8.30422 -5.18712 -11.1534 -0.0333868 -4.07001 0.566874 5.16267e-10 8.69067e-10 2.32717e-10 8.86758e-10 1.50155e-09 4.06893e-10 5.16261e-10 8.69069e-10 2.32728e-10 -7.73091 5.47488 -0.417314 5.16264e-10 8.69064e-10 2.32719e-10 -2.90554 0.965183 -0.102902 5.1626e-10 8.69067e-10 2.32723e-10 -10.2786 0.731801 -0.0259123 5.16266e-10 8.69067e-10 2.32726e-10 -2.22167 -0.733487 0.20892 -2.03217e-16 0.0 -3.88251e-19 -0.434302 -7.70934 -0.757313 -0.0122755 9.1193 0.0650706 -0.374318 0.648558 1.34232 2.03217e-16 0.0 3.88251e-19 1.06101 -13.6785 2.33406 0.0232875 13.3437 -0.122344 0.546195 -0.485404 0.870896
17.7419 82.1649 46.0728 -174.111 4.7867 -171.162 -0.605775 1.60948 2.70169 -0.0963662 -2.6984 0.735106 0.478695 -3.00046 1.02678 4.30988 3.5944 0.521606 -0.0 0.0 0.0 -0.0 0.0 0.0 -6.45074e-15 -2.60699e-13 -1.48188e-14 48.0018 16.5262 -10.7598 -17.8505 -13.6162 26.4855 -0.074043 -16.2016 -2.27103 -6.03895e-10 4.68225e-10 -9.70672e-10 -1.01637e-09 7.79479e-10 -1.68432e-09 -6.03879e-10 4.68221e-10 -9.70684e-10 7.73091 5.47488 0.417314 -6.03893e-10 4.68223e-10 -9.70679e-10 2.90554 0.965183 0.102902 -6.03886e-10 4.68224e-10 -9.7068e-10 10.2786 0.731801 0.0259123 -6.03895e-10 4.68226e-10 -9.70677e-10 2.22167 -0.733487 -0.20892 -6.40853e-15 -2.60705e-13 -1.50145e-14 -38.7188 32.9053 0.0110724 14.7325 -9.78939 -23.0783 0.0197254 -8.33059 1.17007 1.13867e-09 1.83097e-09 4.85016e-10 1.95635e-09 3.16371e-09 8.48207e-10 1.13866e-09 1.83098e-09 4.85035e-10 -7.73091 5.47488 -0.417314 1.13866e-09 1.83097e-09 4.85023e-10 -2.90554 0.965183 -0.102902 1.13866e-09 1.83098e-09 4.85024e-10 -10.2786 0.731801 -0.0259123 1.13867e-09 1.83098e-09 4.85027e-10 -2.22167 -0.733487 0.20892 -2.03217e-16 0.0 -3.88251e-19 -0.713658 -13.8119 -1.55514 -0.0788623 20.9434 0.228414 -0.080472 -2.89427 2.62727 2.03217e-16 0.0 3.88251e-19 4.32297 -22.0923 4.88339 0.0804455 22.4629 -0.228366 0.62447 -2.00128 1.87435
17.5508 82.1918 45.9939 -174.102 5.0198 -170.939 -0.436919 2.33919 3.95731 0.0196712 -3.93562 1.09777 0.742082 -4.37329 1.47797 6.25419 5.24247 0.784242 -0.0 0.0 0.0 -0.0 0.0 0.0 -5.59188e-15 -3.69621e-13 -1.90286e-14 72.2197 23.8537 -16.4675 -22.0464 -17.5625 39.7492 -0.577738 -23.6661 -3.48061 -8.57963e-10 6.95349e-10 -1.38211e-09 -1.44385e-09 1.15935e-09 -2.39868e-09 -8.57944e-10 6.95342e-10 -1.38212e-09 7.73091 5.47488 0.417314 -8.57961e-10 6.95347e-10 -1.38211e-09 2.90554 0.965183 0.102902 -8.57956e-10 6.95348e-10 -1.38211e-09 10.2786 0.731801 0.0259123 -8.57963e-10 6.9535e-10 -1.38211e-09 2.22167 -0.733487 -0.20892 -5.57609e-15 -3.6963e-13 -1.92239e-14 -56.3022 48.2152 -0.00823989 19.1062 -13.1999 -34.3499 0.146164 -12.2052 1.73557 1.63255e-09 2.60708e-09 6.96995e-10 2.80489e-09 4.50441e-09 1.21864e-09 1.63254e-09 2.60709e-09 6.97021e-10 -7.73091 5.47488 -0.417314 1.63254e-09 2.60708e-09 6.97006e-10 -2.90554 0.965183 -0.102902 1.63254e-09 2.60708e-09 6.97005e-10 -10.2786 0.731801 -0.0259123 1.63255e-09 2.60709e-09 6.97008e-10 -2.22167 -0.733487 0.20892 -2.03217e-16 0.0 -3.88251e-19 -1.13434 -19.2747 -2.36035 -0.205386 31.5144 0.40663 0.311999 -6.03418 3.76951 2.03217e-16 0.0 3.88251e-19 7.96621 -29.5139 7.55318 0.164874 30.6029 -0.340707 0.740012 -3.36087 2.7751
17.3009 82.2186 45.8989 -174.181 5.3974 -170.711 -0.347653 2.82088 4.84007 0.100275 -4.80648 1.35301 0.966048 -5.32393 1.7147 7.56561 6.39411 1.04817 -0.0 0.0 0.0 -0.0 0.0 0.0 1.58996e-15 -4.07106e-13 -1.23246e-14 90.1184 29.4537 -21.1097 -24.0872 -19.2608 49.8864 -1.16238 -29.0706 -4.48106 -1.02219e-09 8.99316e-10 -1.54622e-09 -1.72281e-09 1.50656e-09 -2.68539e-09 -1.02217e-09 8.99308e-10 -1.54623e-09 7.73091 5.47488 0.417314 -1.02219e-09 8.99314e-10 -1.54623e-09 2.90554 0.965183 0.102902 -1.02219e-09 8.99315e-10 -1.54623e-09 10.2786 0.731801 0.0259123 -1.02219e-09 8.99317e-10 -1.54622e-09 2.22167 -0.733487 -0.20892 1.59076e-15 -4.07115e-13 -1.25234e-14 -67.8888 59.7158 -0.168672 21.8202 -15.4898 -43.3065 0.288825 -15.1191 2.17611 1.80513e-09 2.91869e-09 8.08176e-10 3.10082e-09 5.04144e-09 1.41189e-09 1.80512e-09 2.9187e-09 8.08204e-10 -7.73091 5.47488 -0.417314 1.80512e-09 2.91868e-09 8.08188e-10 -2.90554 0.965183 -0.102902 1.80513e-09 2.9187e-09 8.08187e-10 -10.2786 0.731801 -0.0259123 1.80513e-09 2.9187e-09 8.08188e-10 -2.22167 -0.733487 0.20892 -2.03217e-16 0.0 -3.88251e-19 -1.59028 -23.1486 -3.09007 -0.345585 38.9533 0.566612 0.64535 -8.18125 4.52693 2.03217e-16 0.0 3.88251e-19 11.032 -34.6135 9.83703 0.247691 36.295 -0.435497 0.84876 -4.33346 3.41418
17.1407 82.2248 45.8053 -174.051 5.7318 -170.615 -0.331051 2.96276 5.19775 0.112245 -5.16635 1.4559 1.12161 -5.68317 1.627 7.99082 6.83872 1.34093 -0.0 0.0 0.0 -0.0 0.0 0.0 2.28407e-14 -3.43422e-13 2.10708e-14 97.6352 33.2153 -23.5652 -25.0642 -20.262 55.2584 -1.49755 -31.6143 -4.99642 -1.17924e-09 1.46763e-09 -1.42494e-09 -1.99658e-09 2.48836e-09 -2.48182e-09 -1.17922e-09 1.46762e-09 -1.42496e-09 7.73091 5.47488 0.417314 -1.17924e-09 1.46762e-09 -1.42495e-09 2.90554 0.965183 0.102902 -1.17923e-09 1.46762e-09 -1.42495e-09 10.2786 0.731801 0.0259123 -1.17924e-09 1.46763e-09 -1.42494e-09 2.22167 -0.733487 -0.20892 2.28456e-14 -3.43429e-13 2.08607e-14 -71.1055 65.9779 -0.461231 23.413 -17.3466 -48.9101 0.376171 -16.6779 2.41747 1.5218e-09 2.65325e-09 8.44911e-10 2.61142e-09 4.5804e-09 1.47244e-09 1.52179e-09 2.65325e-09 8.44936e-10 -7.73091 5.47488 -0.417314 1.52179e-09 2.65324e-09 8.44921e-10 -2.90554 0.965183 -0.102902 1.5218e-09 2.65325e-09 8.44919e-10 -10.2786 0.731801 -0.0259123 1.5218e-09 2.65325e-09 8.44919e-10 -2.22167 -0.733487 0.20892 -2.03217e-16 0.0 -3.88251e-19 -1.93212 -24.8128 -3.63074 -0.418955 42.0031 0.645014 0.77103 -8.9405 4.77047 2.03217e-16 0.0 3.88251e-19 12.4411 -36.5845 11.0686 0.287184 38.5582 -0.479072 0.902647 -4.76964 3.67779
16.9434 82.2337 45.7145 -174.01 6.0792 -170.457 -0.359076 2.86268 5.17992 0.0713676 -5.16129 1.44952 1.22433 -5.62004 1.30804 7.78962 6.77889 1.65205 -0.0 0.0 0.0 -0.0 0.0 0.0 5.38922e-14 -2.0753e-13 7.29881e-14 97.2362 35.8718 -24.1763 -25.6205 -21.5998 57.2919 -1.54326 -32.1237 -5.0941 -1.32551e-09 2.27729e-09 -1.09692e-09 -2.257e-09 3.89104e-09 -1.92287e-09 -1.3255e-09 2.27728e-09 -1.09694e-09 7.73091 5.47488 0.417314 -1.32551e-09 2.27728e-09 -1.09693e-09 2.90554 0.965183 0.102902 -1.3255e-09 2.27729e-09 -1.09693e-09 10.2786 0.731801 0.0259123 -1.32552e-09 2.27729e-09 -1.09692e-09 2.22167 -0.733487 -0.20892 5.39147e-14 -2.07533e-13 7.27614e-14 -68.3512 68.4932 -0.846155 24.4364 -19.2872 -52.1472 0.401853 -17.2706 2.50862 9.13113e-10 1.97213e-09 8.25296e-10 1.56162e-09 3.40041e-09 1.43271e-09 9.13106e-10 1.97213e-09 8.25313e-10 -7.73091 5.47488 -0.417314 9.13106e-10 1.97212e-09 8.253e-10 -2.90554 0.965183 -0.102902 9.13108e-10 1.97213e-09 8.25299e-10 -10.2786 0.731801 -0.0259123 9.13114e-10 1.97214e-09 8.25296e-10 -2.22167 -0.733487 0.20892 -2.03217e-16 0.0 -3.88251e-19 -2.13843 -24.9015 -4.00958 -0.415937 41.9185 0.64308 0.719488 -8.71157 4.63774 2.03217e-16 0.0 3.88251e-19 12.4049 -36.3658 11.3665 0.283416 38.3723 -0.476865 0.906345 -4.82343 3.67218
